# Blender v2.80 (sub 75) OBJ File: ''
# www.blender.org
o Cube_Cube.001
v -2.500000 2.500000 -2.500000
v -2.500000 -2.500000 2.500000
v -2.500000 2.500000 2.500000
v 2.500000 2.500000 -2.500000
v -2.500000 -2.500000 -2.500000
v 2.500000 2.500000 2.500000
v 2.500000 -2.500000 -2.500000
v 2.500000 -2.500000 2.500000
vt 0.975000 0.025000
vt 0.975000 0.225000
vt 0.775000 0.225000
vt 0.975000 0.225000
vt 0.775000 0.225000
vt 0.775000 0.025000
vt 0.975000 0.225000
vt 0.975000 0.025000
vt 0.775000 0.025000
vt 0.775000 0.225000
vt 0.975000 0.025000
vt 0.975000 0.225000
vt 0.975000 0.025000
vt 0.775000 0.225000
vt 0.775000 0.025000
vt 0.775000 0.025000
vn 1.0000 0.0000 0.0000
vn 0.0000 0.0000 1.0000
vn -1.0000 0.0000 0.0000
vn 0.0000 0.0000 -1.0000
vn 0.0000 1.0000 0.0000
vn 0.0000 -1.0000 0.0000
s 1
f 1/1/1 3/2/1 2/3/1
f 4/4/2 1/5/2 5/6/2
f 6/7/3 4/8/3 7/9/3
f 3/10/4 6/7/4 8/11/4
f 5/6/5 2/3/5 8/12/5
f 4/8/6 6/7/6 3/10/6
f 1/1/1 2/3/1 5/6/1
f 4/4/2 5/6/2 7/13/2
f 6/7/3 7/9/3 8/14/3
f 3/10/4 8/11/4 2/15/4
f 5/6/5 8/12/5 7/13/5
f 4/8/6 3/10/6 1/16/6
